<mxfile host="65bd71144e">
    <diagram id="2gPbt4QB9qX_NqwkG2J9" name="Page-1">
        <mxGraphModel dx="1304" dy="390" grid="1" gridSize="10" guides="1" tooltips="1" connect="1" arrows="1" fold="1" page="1" pageScale="1" pageWidth="850" pageHeight="1100" math="0" shadow="0">
            <root>
                <mxCell id="0"/>
                <mxCell id="1" parent="0"/>
                <mxCell id="36" value="CrystalMatch" style="swimlane;fontStyle=0;childLayout=stackLayout;horizontal=1;startSize=20;horizontalStack=0;resizeParent=1;resizeParentMax=0;resizeLast=0;collapsible=0;marginBottom=0;fontSize=12;strokeWidth=1;perimeterSpacing=0;swimlaneLine=1;rounded=0;shadow=0;glass=0;sketch=0;arcSize=25;fillColor=#1ba1e2;fontColor=#FFFFFF;strokeColor=#006EAF;fontFamily=Courier New;" parent="1" vertex="1">
                    <mxGeometry x="400" y="520" width="120" height="140" as="geometry">
                        <mxRectangle x="240" y="580" width="40" height="10" as="alternateBounds"/>
                    </mxGeometry>
                </mxCell>
                <mxCell id="40" value="matchId" style="text;align=center;verticalAlign=middle;spacingLeft=4;spacingRight=4;overflow=hidden;rotatable=0;points=[[0,0.5],[1,0.5]];portConstraint=eastwest;fontSize=12;fontFamily=Courier New;labelPosition=center;verticalLabelPosition=middle;labelBackgroundColor=none;fontColor=#FFFFFF;" parent="36" vertex="1">
                    <mxGeometry y="20" width="120" height="20" as="geometry"/>
                </mxCell>
                <mxCell id="41" value="level" style="text;align=center;verticalAlign=middle;spacingLeft=4;spacingRight=4;overflow=hidden;rotatable=0;points=[[0,0.5],[1,0.5]];portConstraint=eastwest;fontSize=12;fontFamily=Courier New;labelPosition=center;verticalLabelPosition=middle;fontColor=#FFFFFF;labelBackgroundColor=none;" parent="36" vertex="1">
                    <mxGeometry y="40" width="120" height="20" as="geometry"/>
                </mxCell>
                <mxCell id="39" value="team1Tickets" style="text;align=center;verticalAlign=middle;spacingLeft=4;spacingRight=4;overflow=hidden;rotatable=0;points=[[0,0.5],[1,0.5]];portConstraint=eastwest;fontSize=12;fontFamily=Courier New;labelPosition=center;verticalLabelPosition=middle;fontColor=#FFFFFF;labelBackgroundColor=none;" parent="36" vertex="1">
                    <mxGeometry y="60" width="120" height="20" as="geometry"/>
                </mxCell>
                <mxCell id="42" value="team2Tickets" style="text;align=center;verticalAlign=middle;spacingLeft=4;spacingRight=4;overflow=hidden;rotatable=0;points=[[0,0.5],[1,0.5]];portConstraint=eastwest;fontSize=12;fontFamily=Courier New;labelPosition=center;verticalLabelPosition=middle;fontColor=#FFFFFF;labelBackgroundColor=none;" parent="36" vertex="1">
                    <mxGeometry y="80" width="120" height="20" as="geometry"/>
                </mxCell>
                <mxCell id="43" value="time" style="text;align=center;verticalAlign=middle;spacingLeft=4;spacingRight=4;overflow=hidden;rotatable=0;points=[[0,0.5],[1,0.5]];portConstraint=eastwest;fontSize=12;fontFamily=Courier New;labelPosition=center;verticalLabelPosition=middle;fontColor=#FFFFFF;labelBackgroundColor=none;" parent="36" vertex="1">
                    <mxGeometry y="100" width="120" height="20" as="geometry"/>
                </mxCell>
                <mxCell id="44" value="winner" style="text;align=center;verticalAlign=middle;spacingLeft=4;spacingRight=4;overflow=hidden;rotatable=0;points=[[0,0.5],[1,0.5]];portConstraint=eastwest;fontSize=12;fontFamily=Courier New;labelPosition=center;verticalLabelPosition=middle;fontColor=#FFFFFF;labelBackgroundColor=none;" parent="36" vertex="1">
                    <mxGeometry y="120" width="120" height="20" as="geometry"/>
                </mxCell>
                <mxCell id="79" value="" style="edgeStyle=none;html=1;fontFamily=Lucida Console;fontSize=3;entryX=0.5;entryY=0;entryDx=0;entryDy=0;startArrow=none;fillColor=#008a00;strokeColor=#005700;fontColor=#FFFFFF;" parent="1" source="80" target="75" edge="1">
                    <mxGeometry relative="1" as="geometry"/>
                </mxCell>
                <mxCell id="45" value="Player" style="swimlane;fontStyle=0;childLayout=stackLayout;horizontal=1;startSize=20;horizontalStack=0;resizeParent=1;resizeParentMax=0;resizeLast=0;collapsible=0;marginBottom=0;fontSize=12;strokeWidth=1;perimeterSpacing=0;swimlaneLine=1;rounded=0;shadow=0;glass=0;sketch=0;arcSize=25;fillColor=#1ba1e2;fontColor=#FFFFFF;strokeColor=#006EAF;fontFamily=Courier New;" parent="1" vertex="1">
                    <mxGeometry x="80" y="520" width="120" height="80" as="geometry">
                        <mxRectangle x="240" y="580" width="40" height="10" as="alternateBounds"/>
                    </mxGeometry>
                </mxCell>
                <mxCell id="46" value="playerId" style="text;align=center;verticalAlign=middle;spacingLeft=4;spacingRight=4;overflow=hidden;rotatable=0;points=[[0,0.5],[1,0.5]];portConstraint=eastwest;fontSize=12;fontFamily=Courier New;labelPosition=center;verticalLabelPosition=middle;labelBackgroundColor=none;fontColor=#FFFFFF;" parent="45" vertex="1">
                    <mxGeometry y="20" width="120" height="20" as="geometry"/>
                </mxCell>
                <mxCell id="47" value="name" style="text;align=center;verticalAlign=middle;spacingLeft=4;spacingRight=4;overflow=hidden;rotatable=0;points=[[0,0.5],[1,0.5]];portConstraint=eastwest;fontSize=12;fontFamily=Courier New;labelPosition=center;verticalLabelPosition=middle;fontColor=#FFFFFF;labelBackgroundColor=none;" parent="45" vertex="1">
                    <mxGeometry y="40" width="120" height="20" as="geometry"/>
                </mxCell>
                <mxCell id="48" value="displayName" style="text;align=center;verticalAlign=middle;spacingLeft=4;spacingRight=4;overflow=hidden;rotatable=0;points=[[0,0.5],[1,0.5]];portConstraint=eastwest;fontSize=12;fontFamily=Courier New;labelPosition=center;verticalLabelPosition=middle;fontColor=#FFFFFF;labelBackgroundColor=none;" parent="45" vertex="1">
                    <mxGeometry y="60" width="120" height="20" as="geometry"/>
                </mxCell>
                <mxCell id="71" value="" style="edgeStyle=none;html=1;fontFamily=Lucida Console;fontSize=3;entryX=0;entryY=0;entryDx=0;entryDy=0;entryPerimeter=0;startArrow=none;exitX=1;exitY=0;exitDx=0;exitDy=0;fillColor=#008a00;strokeColor=#005700;exitPerimeter=0;fontColor=#FFFFFF;" parent="1" source="67" target="41" edge="1">
                    <mxGeometry relative="1" as="geometry"/>
                </mxCell>
                <mxCell id="65" value="COMPETED_IN" style="swimlane;fontStyle=0;childLayout=stackLayout;horizontal=1;startSize=20;horizontalStack=0;resizeParent=1;resizeParentMax=0;resizeLast=0;collapsible=0;marginBottom=0;fontSize=12;strokeWidth=1;perimeterSpacing=0;swimlaneLine=1;rounded=0;shadow=0;glass=0;sketch=0;arcSize=25;fillColor=#008a00;fontColor=#FFFFFF;strokeColor=#005700;fontFamily=Courier New;" parent="1" vertex="1">
                    <mxGeometry x="240" y="520" width="120" height="120" as="geometry">
                        <mxRectangle x="240" y="580" width="40" height="10" as="alternateBounds"/>
                    </mxGeometry>
                </mxCell>
                <mxCell id="66" value="team" style="text;align=center;verticalAlign=middle;spacingLeft=4;spacingRight=4;overflow=hidden;rotatable=0;points=[[0,0.5],[1,0.5]];portConstraint=eastwest;fontSize=12;fontFamily=Courier New;labelPosition=center;verticalLabelPosition=middle;labelBackgroundColor=none;fontColor=#FFFFFF;" parent="65" vertex="1">
                    <mxGeometry y="20" width="120" height="20" as="geometry"/>
                </mxCell>
                <mxCell id="67" value="kills" style="text;align=center;verticalAlign=middle;spacingLeft=4;spacingRight=4;overflow=hidden;rotatable=0;points=[[0,0.5],[1,0.5]];portConstraint=eastwest;fontSize=12;fontFamily=Courier New;labelPosition=center;verticalLabelPosition=middle;fontColor=#FFFFFF;labelBackgroundColor=none;" parent="65" vertex="1">
                    <mxGeometry y="40" width="120" height="20" as="geometry"/>
                </mxCell>
                <mxCell id="68" value="deaths" style="text;align=center;verticalAlign=middle;spacingLeft=4;spacingRight=4;overflow=hidden;rotatable=0;points=[[0,0.5],[1,0.5]];portConstraint=eastwest;fontSize=12;fontFamily=Courier New;labelPosition=center;verticalLabelPosition=middle;fontColor=#FFFFFF;labelBackgroundColor=none;" parent="65" vertex="1">
                    <mxGeometry y="60" width="120" height="20" as="geometry"/>
                </mxCell>
                <mxCell id="73" value="healing" style="text;align=center;verticalAlign=middle;spacingLeft=4;spacingRight=4;overflow=hidden;rotatable=0;points=[[0,0.5],[1,0.5]];portConstraint=eastwest;fontSize=12;fontFamily=Courier New;labelPosition=center;verticalLabelPosition=middle;fontColor=#FFFFFF;labelBackgroundColor=none;" parent="65" vertex="1">
                    <mxGeometry y="80" width="120" height="20" as="geometry"/>
                </mxCell>
                <mxCell id="74" value="fame" style="text;align=center;verticalAlign=middle;spacingLeft=4;spacingRight=4;overflow=hidden;rotatable=0;points=[[0,0.5],[1,0.5]];portConstraint=eastwest;fontSize=12;fontFamily=Courier New;labelPosition=center;verticalLabelPosition=middle;fontColor=#FFFFFF;labelBackgroundColor=none;" parent="65" vertex="1">
                    <mxGeometry y="100" width="120" height="20" as="geometry"/>
                </mxCell>
                <mxCell id="72" value="" style="edgeStyle=none;html=1;fontFamily=Lucida Console;fontSize=3;entryX=0;entryY=0;entryDx=0;entryDy=0;endArrow=none;fillColor=#008a00;strokeColor=#005700;exitX=1;exitY=0;exitDx=0;exitDy=0;entryPerimeter=0;exitPerimeter=0;fontColor=#FFFFFF;" parent="1" source="47" target="67" edge="1">
                    <mxGeometry relative="1" as="geometry">
                        <mxPoint x="160" y="560" as="sourcePoint"/>
                        <mxPoint x="280" y="560" as="targetPoint"/>
                    </mxGeometry>
                </mxCell>
                <mxCell id="75" value="Event" style="swimlane;fontStyle=0;childLayout=stackLayout;horizontal=1;startSize=20;horizontalStack=0;resizeParent=1;resizeParentMax=0;resizeLast=0;collapsible=0;marginBottom=0;fontSize=12;strokeWidth=1;perimeterSpacing=0;swimlaneLine=1;rounded=0;shadow=0;glass=0;sketch=0;arcSize=25;fillColor=#1ba1e2;fontColor=#FFFFFF;strokeColor=#006EAF;fontFamily=Courier New;" parent="1" vertex="1">
                    <mxGeometry x="80" y="720" width="120" height="40" as="geometry">
                        <mxRectangle x="240" y="580" width="40" height="10" as="alternateBounds"/>
                    </mxGeometry>
                </mxCell>
                <mxCell id="76" value="eventId" style="text;align=center;verticalAlign=middle;spacingLeft=4;spacingRight=4;overflow=hidden;rotatable=0;points=[[0,0.5],[1,0.5]];portConstraint=eastwest;fontSize=12;fontFamily=Courier New;labelPosition=center;verticalLabelPosition=middle;labelBackgroundColor=none;fontColor=#FFFFFF;" parent="75" vertex="1">
                    <mxGeometry y="20" width="120" height="20" as="geometry"/>
                </mxCell>
                <mxCell id="80" value="PARTICIPATED_IN" style="swimlane;fontStyle=0;childLayout=stackLayout;horizontal=1;startSize=20;horizontalStack=0;resizeParent=1;resizeParentMax=0;resizeLast=0;collapsible=0;marginBottom=0;fontSize=12;strokeWidth=1;perimeterSpacing=0;swimlaneLine=1;rounded=0;shadow=0;glass=0;sketch=0;arcSize=25;fillColor=#008a00;fontColor=#FFFFFF;strokeColor=#005700;fontFamily=Courier New;" parent="1" vertex="1">
                    <mxGeometry x="80" y="640" width="120" height="40" as="geometry">
                        <mxRectangle x="240" y="580" width="40" height="10" as="alternateBounds"/>
                    </mxGeometry>
                </mxCell>
                <mxCell id="81" value="type" style="text;align=center;verticalAlign=middle;spacingLeft=4;spacingRight=4;overflow=hidden;rotatable=0;points=[[0,0.5],[1,0.5]];portConstraint=eastwest;fontSize=12;fontFamily=Courier New;labelPosition=center;verticalLabelPosition=middle;labelBackgroundColor=none;fontColor=#FFFFFF;" parent="80" vertex="1">
                    <mxGeometry y="20" width="120" height="20" as="geometry"/>
                </mxCell>
                <mxCell id="86" value="" style="edgeStyle=none;html=1;fontFamily=Lucida Console;fontSize=3;entryX=0.5;entryY=0;entryDx=0;entryDy=0;endArrow=none;fillColor=#008a00;strokeColor=#005700;fontColor=#FFFFFF;" parent="1" source="45" target="80" edge="1">
                    <mxGeometry relative="1" as="geometry">
                        <mxPoint x="160" y="575" as="sourcePoint"/>
                        <mxPoint x="160" y="640" as="targetPoint"/>
                    </mxGeometry>
                </mxCell>
            </root>
        </mxGraphModel>
    </diagram>
</mxfile>